<svg width="189" height="188" viewBox="0 0 189 188" fill="none" xmlns="http://www.w3.org/2000/svg">
<circle cx="94.5" cy="94" r="94" fill="#F2F6FF"/>
<mask id="mask0_89_1051" style="mask-type:alpha" maskUnits="userSpaceOnUse" x="0" y="0" width="189" height="188">
<circle cx="94.5" cy="94" r="94" fill="#F2F6FF"/>
</mask>
<g mask="url(#mask0_89_1051)">
<path d="M56.4448 151.562C56.5172 151.562 56.9278 151.928 57.3685 152.371C65.3141 160.513 79.1926 168.976 88.9495 171.625C91.3947 172.281 92.3044 172.415 94.5061 172.415C96.7058 172.415 97.6296 172.281 100.071 171.625C109.83 168.976 123.708 160.511 131.652 152.371C132.084 151.928 132.503 151.562 132.576 151.562C132.817 151.562 136.035 152.791 136.067 152.893C136.11 153.023 134.82 154.757 133.499 156.32C130.408 159.991 125.576 164.018 120.545 167.121C112.903 171.846 105.933 176.772 94.5081 176.627C83.093 176.493 70.4843 169.506 61.6774 162.263C58.4271 159.603 55.8591 156.95 53.6815 154.011C53.2629 153.447 52.9389 152.946 52.957 152.893C52.9852 152.793 56.2033 151.562 56.4448 151.562ZM112.533 133.427C112.575 133.437 112.587 133.484 112.597 133.538L114.495 144.952L127.963 150.02C127.9 150.197 125.636 152.25 124.107 153.502C118.383 158.219 110.751 162.853 104.223 165.604C101.435 166.78 98.0704 167.811 96.4865 167.966C94.327 168.188 92.2943 168.043 90.2898 167.513C82.0847 165.338 70.0697 158.362 62.3254 151.262C61.6432 150.642 61.0777 150.086 61.0555 150.02L74.5235 144.952L76.4213 133.538C76.4314 133.484 76.4435 133.437 76.4757 133.437C76.5803 133.403 76.854 133.614 77.6812 134.315C81.9579 137.941 86.4861 140.601 90.2617 141.724C92.0428 142.245 92.6928 142.345 94.5061 142.345C96.3275 142.345 96.9796 142.245 98.7506 141.724C102.534 140.601 107.06 137.941 111.339 134.315C112.156 133.614 112.428 133.406 112.533 133.427ZM106.37 62.3208C111.842 68.0451 119.073 84.826 123.026 100.953L123.559 103.149L119.118 117.677C118.52 119.595 118.415 119.817 117.574 121.161C112.774 128.759 103.381 136.366 96.9574 137.831C95.4681 138.174 93.3409 138.163 91.8616 137.797C85.5322 136.221 76.359 128.825 71.6093 121.448L66.0547 105.155L65.5536 103.492C70.8888 83.9252 82.3966 67.5105 100.522 60.911C102.953 60.0464 104.788 60.6683 106.37 62.3208ZM94.5041 32.2961C83.8758 32.2621 74.7248 36.1016 67.3025 43.7191C59.5763 51.6261 54.3477 63.6944 52.6048 77.6047C50.7392 92.4349 52.8161 108.715 57.7509 124.753C58.7994 128.15 60.7073 129.832 62.0397 129.513C62.9956 129.281 63.6557 128.139 63.4967 125.332C63.3297 122.281 63.3921 117.532 63.7282 114.308C63.9475 112.099 63.8228 111.923 65.2477 116.38C65.9178 118.486 66.6102 121.305 68.1216 123.558C69.5686 125.707 71.0981 128.25 72.68 129.913L71.1505 141.702L32.5678 155.455C32.1995 155.455 30.5553 156.288 29.7986 156.852C25.7956 159.848 23.1753 164.782 22.2736 170.994C22.0321 172.724 22.0321 175.72 22.2837 177.547C22.5977 179.856 23.4349 182.539 24.3365 184.134C24.5378 184.481 24.7773 184.958 24.8819 185.19C24.9866 185.431 25.2381 185.778 25.4293 185.955C26.9267 187.341 33.2783 189.916 40.8374 192.188L78.4158 200.774C81.014 201.206 87.0396 201.973 89.4426 202.182C91.0667 202.327 97.692 202.337 99.3282 202.192C101.959 201.971 107.807 201.238 110.607 200.772L148.185 192.186C155.73 189.913 162.094 187.339 163.583 185.952C163.782 185.776 164.034 185.431 164.128 185.188C164.233 184.956 164.485 184.479 164.684 184.132C165.575 182.537 166.425 179.853 166.739 177.545C166.988 175.716 166.988 172.721 166.739 170.992C165.847 164.78 163.227 159.844 159.212 156.85C158.469 156.286 156.821 155.453 156.457 155.453L117.862 141.698L116.34 129.919C117.421 127.933 118.814 126.523 120.303 124.474C122.042 122.055 122.954 119.227 123.795 116.299C124.445 114.014 125.125 112.106 125.147 112.006C125.262 111.639 125.389 112.227 125.713 114.636C126.268 118.75 126.403 120.835 126.341 124.131C126.308 125.726 126.204 127.257 126.214 127.536C126.308 130.009 128.071 130.209 128.742 128.701C132.439 120.362 135.208 111.054 136.581 102.361C137.283 97.9121 137.597 94.2749 137.683 89.7261C137.828 82.0853 137.021 75.2302 135.178 68.4646C130.251 50.3633 118.198 37.4752 102.234 33.2161C100.012 32.6177 99.0364 32.4729 96.6575 32.3494C95.929 32.3195 95.2166 32.2961 94.5041 32.2961Z" fill="#232F4A"/>
<path d="M136.8 115.496C137.013 114.932 137.93 111.468 138.356 109.639C140.745 99.4037 141.534 89.1012 140.659 79.7326C138.325 54.8614 125.034 36.5357 105.006 30.5557C104.378 30.3651 103.845 30.1939 103.825 30.1722C109.519 25.8736 116.143 23.4361 122.968 24.4522C129.643 25.4467 135.54 29.6544 139.965 36.4924C144.134 42.9122 146.802 51.5789 147.568 61.1491C148.092 67.6729 147.781 74.5109 146.694 80.2764C145.733 87.0017 144.316 94.0217 145.156 100.801C146.022 106.84 148.09 111.455 150.67 113.036C151.074 113.286 151.364 113.871 150.766 114.399C146.685 117.89 139.156 118.611 136.8 115.496Z" fill="#232F4A"/>
<path fill-rule="evenodd" clip-rule="evenodd" d="M86.3768 95.791C86.3768 98.3888 84.3947 100.486 81.9396 100.486C79.4763 100.486 77.4922 98.3888 77.4922 95.791C77.4922 93.1845 79.4763 91.085 81.9396 91.085C84.3947 91.085 86.3768 93.1866 86.3768 95.791Z" fill="#3B4F7D"/>
<path fill-rule="evenodd" clip-rule="evenodd" d="M111.524 95.791C111.524 98.3888 109.531 100.486 107.076 100.486C104.625 100.486 102.629 98.3888 102.629 95.791C102.629 93.1845 104.625 91.085 107.076 91.085C109.531 91.085 111.524 93.1866 111.524 95.791Z" fill="#3B4F7D"/>
</g>
</svg>
