<svg width="189" height="188" viewBox="0 0 189 188" fill="none" xmlns="http://www.w3.org/2000/svg">
<circle cx="94.5" cy="94" r="94" fill="#F2F6FF"/>
<mask id="mask0_92_1461" style="mask-type:alpha" maskUnits="userSpaceOnUse" x="0" y="0" width="189" height="188">
<circle cx="94.5" cy="94" r="94" fill="#F2F6FF"/>
</mask>
<g mask="url(#mask0_92_1461)">
<g clip-path="url(#clip0_92_1461)">
<path d="M77.1964 124.126C77.2171 124.103 77.8056 124.503 78.52 125.015C82.6503 128.02 87.9106 130.635 91.8661 131.644C92.541 131.817 93.3644 131.901 94.1879 131.901C95.0094 131.901 95.8423 131.817 96.5097 131.644C100.475 130.637 105.731 128.02 109.865 125.015C110.57 124.503 111.166 124.103 111.176 124.126C111.226 124.19 112.155 133.318 112.155 133.672C111.243 139.406 108.19 144.34 104.379 149.092C101.452 151.804 98.2412 155.934 94.1879 155.934C90.0274 155.934 86.2562 151.849 83.9926 149.092C80.195 144.34 77.1288 139.406 76.2301 133.672C76.2188 133.318 77.1588 124.19 77.1964 124.126ZM94.186 105.325C97.2598 105.325 99.0138 105.755 100.813 106.999C102.039 107.855 103.272 109.678 103.595 111.461L97.632 115.933L96.897 115.332C95.8592 114.442 95.0264 113.991 94.1841 114.004C93.3513 113.993 92.509 114.442 91.4713 115.332L90.7362 115.933L84.7822 111.461C85.0962 109.68 86.3389 107.855 87.5515 106.999C89.3694 105.757 91.1216 105.325 94.186 105.325ZM76.9032 53.7971L94.186 53.8713L111.476 53.7971C113.289 53.7971 113.915 53.8486 115.118 55.3847C118.84 60.104 120.865 64.5001 122.405 71.9971C122.726 74.5915 122.659 76.7905 122.098 82.4405C121.835 85.1564 121.61 87.7385 121.6 88.1894C121.579 89.0048 121.591 89.0151 121.886 89.1777C122.051 89.2622 122.422 89.3363 122.719 89.3363C123.352 89.3466 123.98 88.9183 124.285 88.2841L125.242 83.0191C125.625 80.6059 128.229 81.166 129.083 83.2436C130.649 87.0837 128.103 94.1833 124.45 97.1874C123.871 97.6569 122.766 98.3137 122.689 98.2252C122.668 98.1943 122.709 97.7331 122.786 97.1874C123.315 93.5718 123.315 93.3906 122.719 92.6493C122.375 92.2313 121.758 91.8669 121.642 92.0295L118.714 99.8683L108.482 107.75C107.502 106.711 106.699 105.747 105.594 104.866C102.088 102.08 98.1622 100.803 94.186 100.78C90.0632 100.758 85.8332 102.368 82.7876 104.866C81.6896 105.77 80.8681 106.711 79.8905 107.75L69.6576 99.8683L66.7399 92.0295C66.612 91.8669 65.9954 92.2334 65.6626 92.6493C65.0554 93.3906 65.0554 93.5718 65.5856 97.1874C65.6626 97.7331 65.7115 98.1943 65.6927 98.2252C65.6025 98.3137 64.497 97.6569 63.9199 97.1874C60.2652 94.1833 57.7215 87.0837 59.2876 83.2436C60.1392 81.166 62.7449 80.6059 63.1359 83.0191L64.0966 88.2841C64.3899 88.9183 65.0272 89.3466 65.6626 89.3363C65.9465 89.3363 66.3188 89.2622 66.4842 89.1777C66.7869 89.0151 66.7869 89.0048 66.7775 88.1894C66.7681 87.7385 66.5425 85.1564 66.268 82.4405C65.7096 76.7905 65.6514 74.5915 65.9747 71.9971C67.5013 64.5001 69.5298 60.104 73.2484 55.3847C74.4573 53.8486 75.0927 53.7971 76.9032 53.7971ZM94.186 20.6279C91.6894 20.6279 89.5838 22.2258 88.202 23.9821C86.9593 23.21 85.3632 22.2999 83.6881 22.6746C81.6032 23.1585 80.8681 24.3795 79.9281 25.86C78.3038 25.4955 76.3053 25.2278 74.7299 25.7632C72.7822 26.4159 71.8215 27.8222 71.0376 29.5827C69.5787 29.1956 67.7682 29.0453 66.5425 29.6569C64.0364 30.9108 62.7148 32.9596 61.882 35.416C59.8647 35.4572 57.2891 35.9617 56.0934 37.5059C55.4392 38.3543 55.2136 39.1141 55.1835 40.3577C55.1534 41.4428 55.1459 41.4758 54.8132 41.8485C54.6252 42.0626 54.2341 42.3426 53.9615 42.5053C49.9966 45.4765 51.0738 50.8671 53.8638 53.4656L58.2611 78.0774L57.605 78.7198C56.5766 79.7391 55.9506 80.886 55.5088 82.5579C54.5387 86.2374 55.3527 91.1915 57.635 95.4723C59.4267 98.8264 62.5212 101.756 64.9294 102.356C65.2904 102.454 65.469 102.562 65.5254 102.72C65.5649 102.85 65.9766 105.189 66.4353 107.923C67.2005 112.521 67.287 112.964 67.6517 113.81C68.4432 115.645 70.0712 117.64 73.1845 120.589L73.7335 121.101L72.645 131.333L35.9173 144.856C35.0544 145.145 34.4189 145.522 33.3812 146.357C29.8073 149.25 27.4084 154.207 26.6827 160.18C26.4571 162.066 26.5756 165.327 26.9478 167.321C27.3482 169.497 28.777 173.113 29.6099 174.076C30.5499 175.172 36.6411 177.822 42.3187 179.621C58.2705 184.685 76.8054 188.65 90.3564 189.906C90.582 189.929 92.2759 189.939 94.186 189.929C96.1036 189.939 97.7975 189.929 98.0231 189.906C111.574 188.652 130.102 184.685 146.051 179.621C151.742 177.82 157.82 175.172 158.76 174.076C159.593 173.113 161.024 169.497 161.435 167.321C161.806 165.327 161.924 162.066 161.689 160.18C160.965 154.207 158.567 149.25 154.995 146.357C153.955 145.519 153.32 145.145 152.468 144.856L115.738 131.333L114.654 121.101L115.193 120.589C118.306 117.64 119.94 115.645 120.726 113.81C121.087 112.964 121.175 112.523 121.95 107.923C122.41 105.189 122.813 102.85 122.86 102.72C122.911 102.562 123.085 102.454 123.448 102.356C125.864 101.756 128.96 98.8285 130.752 95.4723C133.032 91.1915 133.845 86.2374 132.875 82.5579C132.436 80.886 131.809 79.7391 130.778 78.7198L130.124 78.0774L134.51 53.4656C137.309 50.8692 138.377 45.4765 134.412 42.5053C134.136 42.3426 133.745 42.0626 133.561 41.8485C133.237 41.4758 133.228 41.4428 133.198 40.3577C133.16 39.1141 132.935 38.3543 132.288 37.5059C131.083 35.9637 128.519 35.4572 126.49 35.416C125.657 32.9596 124.337 30.9108 121.841 29.6569C120.617 29.0453 118.795 29.1956 117.346 29.5827C116.554 27.8222 115.603 26.418 113.653 25.7632C112.069 25.2278 110.072 25.4935 108.444 25.86C107.513 24.3795 106.555 22.7611 104.684 22.6746C103.246 22.6314 101.591 23.4056 100.17 23.9821C98.416 21.8078 96.6338 20.6279 94.186 20.6279Z" fill="#232F4A"/>
<path fill-rule="evenodd" clip-rule="evenodd" d="M85.7237 82.689C85.7237 85.1578 83.9039 87.151 81.6404 87.151C79.39 87.151 77.5664 85.1578 77.5664 82.689C77.5664 80.2244 79.3881 78.2168 81.6404 78.2168C83.9039 78.2168 85.7237 80.2223 85.7237 82.689Z" fill="#232F4A"/>
<path fill-rule="evenodd" clip-rule="evenodd" d="M108.812 82.689C108.812 85.1578 106.983 87.151 104.729 87.151C102.479 87.151 100.646 85.1578 100.646 82.689C100.646 80.2244 102.479 78.2168 104.729 78.2168C106.983 78.2168 108.812 80.2223 108.812 82.689Z" fill="#232F4A"/>
</g>
</g>
<defs>
<clipPath id="clip0_92_1461">
<rect width="135.36" height="172.96" fill="white" transform="translate(25.5 18.7998)"/>
</clipPath>
</defs>
</svg>
