<svg width="44" height="50" viewBox="0 0 44 50" fill="none" xmlns="http://www.w3.org/2000/svg">
<g clip-path="url(#clip0_92_1493)">
<path d="M10.0498 35.5501L16.9936 38.3376L17.3436 37.7626C17.3751 37.7103 17.4178 37.6655 17.4686 37.6314C18.6725 36.783 19.6575 35.6605 20.3421 34.3564C21.0268 33.0524 21.3914 31.6042 21.4061 30.1314V15.6251C21.4022 15.4503 21.3515 15.2798 21.2591 15.1314C21.1668 14.9829 21.0362 14.862 20.8811 14.7814C20.7185 14.6845 20.5328 14.6334 20.3436 14.6334C20.1543 14.6334 19.9686 14.6845 19.8061 14.7814C18.9686 15.3001 18.5561 16.5501 18.5561 18.3939C18.5561 23.9376 17.8936 25.4064 17.8186 25.5564C17.7595 25.6612 17.6624 25.7393 17.5474 25.7745C17.4323 25.8097 17.3081 25.7993 17.2005 25.7455C17.0929 25.6917 17.0101 25.5986 16.9693 25.4855C16.9284 25.3723 16.9326 25.2478 16.9811 25.1376C16.9811 25.1001 17.6061 23.6564 17.6061 18.3939C17.6061 16.1751 18.1873 14.6939 19.3311 13.9814C19.6355 13.797 19.9835 13.697 20.3393 13.6915C20.6952 13.686 21.0461 13.7753 21.3561 13.9501L21.4248 13.9939V0.987634C21.423 0.90677 21.4015 0.82756 21.3623 0.756802C21.3231 0.686044 21.2674 0.62585 21.1998 0.581384C21.1157 0.521278 21.018 0.482964 20.9155 0.469875C20.813 0.456786 20.7088 0.469331 20.6123 0.506384C18.4936 1.28763 18.3061 2.64388 17.7561 6.65013C17.5811 7.93763 17.3623 9.54388 17.0186 11.4376C16.5304 14.0221 15.5842 16.4985 14.2248 18.7501C13.2452 20.397 12.4886 22.1666 11.9748 24.0126C11.2123 26.9439 11.6686 32.5564 11.6748 32.6126C11.6803 32.7104 11.6586 32.8077 11.6123 32.8939L10.0498 35.5501Z" fill="#ffff"/>
<path d="M16.8746 44.3377L18.8809 40.1002L7.06836 35.3564L5.25586 39.4127L16.8371 44.3189L16.8746 44.3377Z" fill="#ffff"/>
<path d="M16.4564 45.1811L4.85645 40.2686L0.356445 49.9998H14.4127L16.4564 45.1811Z" fill="#ffff"/>
<path d="M26.2812 37.6314C26.332 37.6655 26.3747 37.7103 26.4062 37.7626L26.7563 38.3376L33.7 35.5501L32.1375 32.9189C32.0912 32.8327 32.0695 32.7354 32.075 32.6376C32.075 32.5814 32.5375 26.9689 31.775 24.0376C31.2633 22.183 30.5066 20.4048 29.525 18.7501C28.1721 16.4972 27.2324 14.0209 26.75 11.4376C26.4062 9.56263 26.1875 7.93763 26.0125 6.65013C25.4625 2.64388 25.275 1.28763 23.1562 0.506384C23.0598 0.469331 22.9556 0.456786 22.8531 0.469875C22.7505 0.482964 22.6528 0.521278 22.5688 0.581384C22.5012 0.62585 22.4454 0.686044 22.4062 0.756802C22.367 0.82756 22.3456 0.90677 22.3438 0.987634V13.9814L22.4125 13.9376C22.7225 13.7628 23.0734 13.6735 23.4292 13.679C23.7851 13.6845 24.1331 13.7845 24.4375 13.9689C25.5812 14.6814 26.1625 16.1626 26.1625 18.3814C26.1625 23.6939 26.7875 25.1126 26.7875 25.1251C26.8412 25.237 26.8484 25.3657 26.8074 25.4829C26.7664 25.6 26.6805 25.6962 26.5687 25.7501C26.5142 25.778 26.4547 25.7948 26.3937 25.7995C26.3327 25.8042 26.2713 25.7968 26.2132 25.7776C26.155 25.7584 26.1013 25.7279 26.055 25.6878C26.0088 25.6476 25.971 25.5987 25.9437 25.5439C25.8687 25.3939 25.2063 23.9251 25.2063 18.3814C25.2063 16.5376 24.7625 15.2876 23.9563 14.7689C23.7937 14.672 23.608 14.6209 23.4188 14.6209C23.2295 14.6209 23.0438 14.672 22.8813 14.7689C22.722 14.8488 22.5876 14.9709 22.4929 15.1219C22.3981 15.2729 22.3465 15.4469 22.3438 15.6251V30.1126C22.3554 31.5886 22.7186 33.0405 23.4034 34.3481C24.0882 35.6557 25.0747 36.7812 26.2812 37.6314Z" fill="#ffff"/>
<path d="M26.8754 44.3375H26.9129L38.4941 39.4312L36.6816 35.375L24.8691 40.1188L26.8754 44.3375Z" fill="#ffff"/>
<path d="M29.3377 49.9998H43.3939L38.8939 40.2686L27.2939 45.1811L29.3377 49.9998Z" fill="#ffff"/>
</g>
<defs>
<clipPath id="clip0_92_1493">
<rect width="43.75" height="50" fill="white"/>
</clipPath>
</defs>
</svg>
